<?xml version="1.0" standalone="no"?>
<!DOCTYPE svg PUBLIC "-//W3C//DTD SVG 20010904//EN"
 "http://www.w3.org/TR/2001/REC-SVG-20010904/DTD/svg10.dtd">
<svg version="1.0" xmlns="http://www.w3.org/2000/svg"
 width="300.000000pt" height="276.000000pt" viewBox="0 0 300.000000 276.000000"
 preserveAspectRatio="xMidYMid meet">
<metadata>
Created by potrace 1.10, written by Peter Selinger 2001-2011
</metadata>
<g transform="translate(0.000000,276.000000) scale(0.100000,-0.100000)"
fill="#000000" stroke="none">
<path d="M1705 2700 c-82 -34 -102 -148 -45 -260 25 -50 25 -119 -1 -190 -33
-94 -57 -173 -64 -215 -13 -77 -46 -170 -69 -195 -13 -14 -26 -32 -29 -40 -4
-10 -9 -5 -18 17 -7 17 -22 36 -33 42 -12 7 -36 23 -55 36 -85 62 -201 1 -201
-105 0 -37 23 -85 47 -99 17 -9 17 -12 3 -38 -9 -15 -34 -37 -55 -49 -41 -21
-50 -32 -125 -159 -25 -42 -69 -109 -99 -148 -29 -40 -66 -100 -81 -134 -16
-34 -50 -84 -77 -111 -39 -40 -58 -52 -103 -61 -83 -19 -89 -22 -62 -32 12 -4
28 -7 35 -5 36 12 67 15 67 9 0 -5 -12 -16 -27 -26 l-28 -18 40 4 c22 3 48 8
57 12 13 5 15 2 11 -14 -7 -28 5 -26 39 6 28 27 29 27 59 9 29 -17 59 -16 59
3 0 5 -9 11 -20 14 -16 4 -20 13 -20 49 0 59 33 112 104 168 41 31 70 64 90
103 17 31 35 57 40 57 6 0 20 10 33 21 29 28 46 16 79 -59 51 -116 49 -151 -8
-171 -27 -10 -32 -22 -28 -69 2 -34 -20 -92 -36 -92 -8 0 -33 -17 -57 -38 -23
-21 -59 -50 -79 -65 -20 -15 -58 -54 -84 -87 -30 -39 -54 -60 -67 -60 -12 0
-35 -13 -52 -28 -16 -16 -56 -39 -89 -52 -96 -38 -311 -203 -342 -263 -11 -21
-20 -26 -34 -22 -13 4 -23 -1 -32 -14 -18 -29 -25 -26 -33 9 -4 16 -11 30 -16
30 -11 0 -11 -7 1 -49 8 -29 7 -34 -10 -38 -11 -3 -20 -12 -20 -19 0 -18 -30
-29 -112 -44 -72 -13 -108 -32 -108 -59 0 -25 35 -68 70 -86 26 -13 34 -13 76
1 28 9 60 13 80 9 31 -5 38 -1 112 75 80 81 142 123 167 113 8 -2 45 20 82 50
37 30 106 76 153 102 47 26 105 62 130 79 25 17 150 83 279 147 l234 115 191
-74 c105 -40 228 -82 273 -92 92 -20 112 -31 258 -131 155 -107 248 -165 277
-172 33 -9 143 -127 171 -184 l21 -42 40 30 c23 17 77 55 121 85 44 29 100 71
125 93 38 34 43 43 34 58 -17 28 -42 27 -94 -1 -38 -21 -62 -26 -114 -26 -36
0 -66 4 -66 9 0 5 18 25 40 45 47 42 29 48 -30 11 -37 -23 -44 -25 -80 -14
-26 8 -40 18 -40 29 0 17 -110 108 -300 247 -108 79 -154 107 -190 118 -14 4
-51 32 -83 61 -33 31 -93 71 -143 96 -69 34 -84 45 -80 61 3 12 -12 36 -45 73
l-50 55 8 52 c4 29 8 106 8 172 -1 112 -3 124 -29 173 -38 72 -44 142 -18 208
11 28 25 86 31 130 12 85 44 202 69 249 14 27 24 131 26 277 1 45 2 46 36 52
80 13 130 73 130 156 0 88 -56 140 -150 139 -30 0 -64 -4 -75 -9z m138 -30 c4
0 19 -12 32 -26 20 -21 25 -38 25 -78 0 -64 -27 -97 -100 -121 -59 -20 -57
-13 -69 -195 -7 -107 -15 -148 -34 -198 -25 -61 -31 -83 -62 -246 -8 -44 -22
-93 -30 -109 -8 -17 -15 -46 -15 -66 1 -39 27 -128 55 -181 14 -27 16 -58 13
-205 l-3 -174 32 -33 c18 -18 38 -51 45 -72 10 -31 22 -44 58 -62 24 -12 48
-21 51 -18 4 2 9 -1 11 -6 2 -6 11 -12 21 -14 9 -1 26 -12 37 -24 12 -12 24
-22 28 -22 4 0 25 -18 48 -39 22 -22 66 -52 98 -68 88 -42 96 -47 96 -55 0 -5
7 -8 15 -8 8 0 15 -5 15 -10 0 -6 8 -14 18 -17 9 -4 42 -26 72 -50 65 -52 68
-53 100 -74 14 -9 46 -35 70 -58 25 -22 48 -41 51 -41 4 0 12 -13 19 -30 11
-27 35 -44 56 -39 14 3 48 -14 60 -30 8 -10 34 -15 85 -17 62 -2 81 2 116 22
23 13 48 24 55 24 12 0 -41 -53 -75 -75 -9 -5 -55 -37 -104 -70 -48 -33 -91
-60 -94 -60 -4 0 -26 25 -49 55 -54 70 -139 150 -160 150 -9 0 -45 20 -81 45
-35 25 -68 45 -72 45 -4 0 -13 5 -20 10 -44 37 -92 70 -108 75 -10 4 -19 11
-19 16 0 5 -7 9 -15 9 -8 0 -15 5 -15 10 0 6 -7 10 -15 10 -8 0 -15 4 -15 8 0
13 -102 60 -145 67 -58 10 -144 35 -191 57 -22 10 -47 18 -55 18 -8 0 -19 4
-24 9 -17 14 -194 81 -218 81 -12 0 -98 -38 -192 -84 -93 -46 -188 -92 -210
-102 -22 -10 -84 -46 -137 -81 -54 -35 -101 -63 -105 -63 -13 0 -165 -100
-195 -128 -15 -15 -34 -28 -41 -28 -6 -1 -15 -2 -19 -3 -5 0 -10 -1 -13 -1
-19 1 -77 -42 -143 -106 -64 -62 -82 -74 -110 -74 -18 0 -47 -6 -65 -13 -42
-18 -89 -5 -117 30 l-22 28 54 12 c29 7 73 17 98 23 29 7 56 23 75 44 29 31
70 58 108 70 9 3 21 16 26 28 5 13 46 54 92 93 46 38 86 73 89 76 3 3 19 14
37 23 18 9 42 26 54 39 12 12 19 16 15 9 -4 -7 13 -1 38 13 25 14 51 25 59 25
8 0 22 10 33 21 10 12 38 30 61 41 23 10 52 32 64 49 36 51 161 166 216 199
34 20 63 76 63 121 0 28 5 39 24 49 31 16 50 61 43 103 -10 61 -66 166 -98
182 -17 9 -29 11 -29 5 0 -5 -6 -10 -14 -10 -25 0 -74 -49 -98 -97 -13 -25
-39 -57 -58 -71 -78 -57 -116 -107 -130 -168 -11 -50 -18 -61 -44 -74 -23 -11
-39 -13 -57 -6 l-26 9 48 46 c29 27 65 78 90 126 23 44 53 92 67 108 14 15 22
27 17 27 -5 0 -1 6 8 13 9 6 31 37 49 69 101 172 121 200 152 213 33 14 56 36
74 71 10 18 7 29 -18 65 -47 69 -36 136 27 168 34 17 78 13 98 -9 10 -11 24
-20 31 -20 7 0 25 -15 39 -34 37 -49 49 -50 89 -8 37 37 72 125 86 212 8 47
36 143 65 220 30 81 30 138 1 207 -26 62 -36 163 -18 189 4 7 25 20 47 31 30
14 50 17 80 11 22 -4 44 -7 48 -8z"/>
<path d="M184 1946 l-134 -148 0 -199 0 -199 235 0 235 0 0 99 c0 92 2 102 26
130 l26 31 122 0 122 0 32 -33 c28 -29 32 -39 32 -90 l0 -58 -233 -242 c-128
-133 -315 -327 -415 -432 l-182 -189 0 -203 0 -203 25 12 25 11 0 186 0 186
410 430 409 430 0 71 c1 70 0 73 -41 123 l-43 51 -136 0 -135 0 -42 -51 c-41
-51 -42 -53 -42 -130 l0 -79 -195 0 -195 0 0 161 0 160 123 139 122 138 361 1
362 1 32 -37 c103 -119 111 -126 128 -110 16 17 23 8 -108 159 l-25 29 -384 2
-384 2 -133 -149z"/>
<path d="M1770 2067 c-23 -29 -54 -117 -41 -117 3 1 24 23 45 50 l39 50 361 0
361 -1 127 -142 127 -142 1 -269 0 -269 -44 -52 -45 -52 45 -44 44 -43 0 -276
0 -277 -25 -23 c-30 -28 -31 -36 -6 -43 13 -3 29 5 45 22 l26 27 0 291 c0 250
-2 292 -15 303 -9 7 -25 26 -36 42 l-21 29 36 39 36 40 0 288 0 287 -133 152
-132 152 -372 1 c-204 0 -377 2 -385 4 -7 3 -24 -9 -38 -27z"/>
<path d="M254 1855 l-115 -130 3 -108 3 -108 138 -2 137 -2 0 70 0 71 58 57
58 57 166 0 166 0 51 -59 51 -59 0 -108 -1 -109 -414 -430 -414 -430 -1 -147
0 -148 48 0 c59 0 79 18 84 75 2 34 7 41 27 43 14 2 28 -3 33 -12 13 -23 35
-10 108 59 36 34 88 80 116 103 70 57 337 359 324 367 -6 4 -24 -5 -41 -19
-36 -31 -38 -31 -67 -10 -14 9 -33 13 -46 10 -15 -4 -34 3 -56 19 -19 14 -40
25 -47 25 -7 0 -17 8 -22 19 -16 28 8 52 65 62 88 17 131 52 188 157 28 51 66
111 85 133 18 22 40 55 49 72 8 18 29 52 47 77 18 25 45 69 61 98 19 37 40 60
64 72 63 32 67 44 30 87 -29 33 -32 41 -27 82 5 45 4 47 -61 119 l-67 73 -334
2 -333 2 -114 -130z m829 31 c53 -60 57 -68 57 -114 0 -35 6 -57 21 -76 21
-26 18 -46 -6 -46 -17 0 -69 -59 -97 -112 -58 -103 -52 -104 -58 12 -5 114 -4
111 -92 202 l-36 38 -173 0 -173 0 -68 -69 c-68 -69 -68 -70 -68 -125 l0 -56
-104 0 -105 0 -3 95 c-2 75 0 98 12 109 18 16 76 80 140 154 l45 52 326 0 325
0 57 -64z m-180 -583 c-10 -16 -20 -30 -24 -33 -6 -5 -13 -17 -58 -105 -12
-25 -36 -58 -51 -73 -28 -28 -106 -59 -118 -47 -4 4 19 31 50 61 31 30 55 54
54 54 -1 0 34 38 78 85 44 47 82 85 83 85 2 0 -4 -12 -14 -27z m-319 -373 c11
-19 29 -33 46 -37 16 -3 37 -14 46 -24 11 -12 31 -19 53 -19 61 0 67 -12 29
-56 -106 -124 -187 -207 -297 -304 -106 -94 -99 -90 -126 -78 -29 13 -75 3
-75 -17 0 -8 -4 -15 -9 -15 -6 0 -11 -17 -13 -37 -3 -35 -6 -38 -35 -41 l-33
-3 0 128 0 128 190 195 c104 107 189 198 190 203 1 16 17 5 34 -23z"/>
<path d="M2173 1982 l-331 -2 -71 -79 c-50 -55 -71 -87 -71 -105 0 -14 -11
-56 -25 -93 -14 -37 -25 -81 -23 -98 l3 -30 123 -3 122 -3 0 38 c0 32 8 46 57
95 l57 58 167 0 166 0 51 -61 52 -61 0 -135 0 -135 -57 -65 -57 -64 -78 3 -78
3 0 -117 0 -118 83 -1 82 0 53 -62 52 -62 0 -136 c0 -120 -2 -139 -19 -161
l-20 -24 76 -60 c42 -32 87 -73 100 -91 l25 -33 64 76 64 75 0 233 0 233 -61
67 -61 66 61 66 61 65 0 233 0 234 -96 108 c-53 60 -106 118 -118 129 -20 19
-33 20 -353 17z m370 -79 c24 -27 70 -76 101 -110 l56 -63 0 -237 -1 -238 -49
-54 c-28 -29 -50 -61 -50 -70 0 -17 53 -87 82 -109 16 -12 18 -35 18 -256 l0
-242 -35 -40 c-19 -21 -35 -43 -35 -47 0 -12 -32 8 -75 48 -22 20 -53 43 -69
52 -25 13 -27 18 -21 46 14 60 14 280 0 312 -17 38 -113 146 -128 144 -7 -1
-38 -1 -69 0 l-58 1 0 85 0 85 70 0 69 0 61 70 c33 39 60 74 60 78 1 4 2 70 3
146 3 154 5 147 -82 246 l-31 35 -174 3 -173 3 -45 -38 c-60 -52 -98 -101 -98
-130 0 -23 -2 -23 -96 -23 l-96 0 5 33 c3 17 12 51 21 74 8 23 18 57 21 75 3
18 19 47 34 63 15 17 34 38 42 48 47 61 19 57 373 57 l324 0 45 -47z"/>
<path d="M1997 1656 c-42 -51 -44 -58 -40 -100 l6 -46 -143 0 -142 0 14 -21
c13 -20 22 -22 114 -21 54 1 120 1 145 2 l45 0 -4 58 c-4 55 -2 61 28 95 l32
37 123 0 123 0 31 -35 c29 -34 31 -40 31 -121 0 -78 -2 -88 -27 -120 l-28 -34
-107 0 -108 0 0 -226 0 -225 106 2 c106 2 106 1 130 -27 21 -26 23 -39 23
-124 1 -52 -3 -102 -9 -110 -5 -9 -5 -19 2 -27 9 -11 15 -9 35 8 21 21 23 30
23 127 l0 104 -41 49 -41 49 -94 0 -94 0 0 180 0 180 98 1 97 0 38 45 37 45 0
104 0 103 -46 51 -46 51 -133 0 -134 0 -44 -54z"/>
<path d="M1178 1309 c-15 -11 -40 -43 -56 -72 -20 -35 -48 -64 -86 -91 -32
-22 -64 -52 -71 -67 -19 -36 -31 -113 -18 -108 14 5 283 306 283 316 0 5 -6
15 -13 24 -12 16 -15 15 -39 -2z m12 -33 c0 -2 -8 -10 -17 -17 -16 -13 -17
-12 -4 4 13 16 21 21 21 13z m-175 -196 c-3 -5 -12 -10 -18 -10 -7 0 -6 4 3
10 19 12 23 12 15 0z"/>
<path d="M1120 1073 c-69 -80 -176 -204 -238 -275 -63 -71 -112 -132 -109
-134 5 -5 79 51 121 93 16 15 91 100 167 188 76 88 154 176 173 195 27 26 34
40 30 58 -4 12 -9 22 -13 21 -3 0 -62 -66 -131 -146z"/>
<path d="M1520 584 l0 -115 138 -155 137 -154 368 0 c202 0 367 4 367 8 0 5
-8 16 -18 25 -17 15 -57 17 -363 17 l-344 1 -115 130 -115 130 -5 106 c-5 98
-7 106 -27 114 l-23 8 0 -115z"/>
<path d="M1245 637 l-40 -22 53 -3 52 -3 0 -200 0 -199 -413 0 -414 0 -23 -25
-23 -25 456 0 457 0 0 250 0 250 -32 0 c-18 -1 -51 -11 -73 -23z"/>
<path d="M1620 585 l0 -65 113 -124 112 -125 274 0 275 -1 -55 41 c-30 22 -69
47 -87 54 -18 8 -58 34 -90 58 -76 58 -97 69 -125 62 -19 -5 -31 1 -58 33 -29
33 -45 41 -109 56 -41 10 -108 31 -148 47 -102 41 -102 41 -102 -36z m150 -13
c47 -17 101 -33 120 -37 21 -4 53 -23 78 -46 31 -28 51 -39 70 -37 33 2 55
-10 113 -58 24 -20 69 -49 99 -63 l55 -26 -222 -3 -223 -2 -52 57 c-29 32 -75
80 -102 108 -43 43 -50 57 -54 99 -6 56 -18 55 118 8z"/>
<path d="M1022 531 c-28 -16 -66 -41 -82 -55 -17 -14 -77 -50 -133 -81 -57
-31 -122 -72 -146 -91 l-44 -34 322 0 321 0 0 145 0 145 -92 0 c-84 0 -98 -3
-146 -29z m200 -39 c2 -15 2 -64 0 -109 l-3 -83 -257 0 c-171 0 -253 3 -246
10 6 6 50 31 100 56 49 25 100 57 115 70 14 13 30 24 37 24 6 0 15 6 19 13 21
32 87 52 160 49 69 -3 72 -4 75 -30z"/>
</g>
</svg>
