<?xml version="1.0" encoding="UTF-8"?>
<!DOCTYPE svg PUBLIC "-//W3C//DTD SVG 1.1//EN" "http://www.w3.org/Graphics/SVG/1.1/DTD/svg11.dtd">
<svg version="1.1" xmlns="http://www.w3.org/2000/svg" xmlns:xlink="http://www.w3.org/1999/xlink" x="0" y="0" width="236.371" height="237.566" viewBox="0, 0, 236.371, 237.566">
  <g id="Layer_1">
    <path d="M115.873,66.795 C115.873,71.027 119.219,74.458 123.446,74.661 C133.106,75.127 142.625,79.019 149.988,86.382 C157.348,93.742 161.24,103.256 161.708,112.913 C161.913,117.138 165.343,120.484 169.574,120.484 L169.626,120.484 C174.13,120.484 177.713,116.714 177.497,112.216 C176.85,98.755 171.4,85.485 161.142,75.228 C150.881,64.966 137.604,59.516 124.138,58.872 C119.641,58.657 115.873,62.241 115.873,66.743 z" fill="#7FC35B" id="path31871"/>
    <path d="M125.745,36.885 C125.745,41.147 129.137,44.607 133.396,44.753 C148.154,45.259 162.76,51.13 174,62.37 C185.238,73.607 191.108,88.208 191.616,102.962 C191.763,107.221 195.223,110.612 199.484,110.612 L199.484,110.612 C203.932,110.612 207.509,106.931 207.361,102.486 C206.739,83.853 199.347,65.408 185.155,51.216 C170.959,37.02 152.508,29.627 133.869,29.008 C129.425,28.861 125.745,32.438 125.745,36.885" fill="#7FC35B" id="path31873"/>
    <path d="M134.287,7.896 C134.287,12.137 137.645,15.66 141.885,15.766 C161.902,16.262 181.767,24.116 197.011,39.36 C212.251,54.6 220.105,74.46 220.604,94.473 C220.71,98.713 224.233,102.07 228.474,102.07 L228.495,102.07 C232.953,102.07 236.486,98.375 236.368,93.919 C235.732,70.052 226.34,46.38 208.165,28.205 C189.987,10.027 166.309,0.634 142.437,0.003 C137.982,-0.116 134.287,3.418 134.287,7.875 z" fill="#7FC35B" id="path31875"/>
    <path d="M82.556,146.607" fill="#7FC35B" id="path31877"/>
    <path d="M41.455,43.916 C41.451,43.916 41.449,43.917 41.449,43.917 L41.366,43.941 z M56.414,179.622 C59.393,182.451 113.075,232.746 149.958,224.012 C186.309,215.402 193.245,196.927 193.531,196.096 C193.645,195.638 194.584,191.578 193.507,186.561 C192.033,179.697 187.515,174.101 180.078,169.929 C170.369,164.483 152.992,156.983 145.691,167.933 C139.02,177.939 130.718,183.94 121.68,185.286 C112.76,186.613 103.555,183.448 94.325,175.875 C83.343,166.864 71.152,154.617 61.713,143.113 C54.14,133.883 50.973,124.679 52.302,115.757 C53.647,106.721 59.648,98.418 69.654,91.747 C80.606,84.446 73.105,67.069 67.658,57.36 C63.486,49.923 57.891,45.405 51.027,43.931 C46.12,42.879 42.13,43.753 41.527,43.898 C39.979,44.438 22.12,51.405 13.576,87.48 C10.258,101.49 15.396,120.426 28.434,142.242 C39.243,160.328 52.409,175.242 56.414,179.622 M141.133,237.566 C98.794,237.567 49.802,190.721 47.549,188.543 L47.285,188.272 C42.114,182.633 28.873,167.488 17.64,148.693 C2.678,123.658 -2.806,102.088 1.34,84.582 C11.914,39.938 36.927,32.139 37.987,31.829 C46.856,29.263 66.737,30.016 78.625,51.208 C85.16,62.858 88.26,73.181 87.837,81.888 C87.416,90.576 83.54,97.603 76.629,102.21 C71.769,105.45 65.76,110.752 64.739,117.61 C63.956,122.871 66.208,128.768 71.434,135.137 C80.38,146.041 91.919,157.635 102.301,166.154 C108.67,171.38 114.566,173.634 119.828,172.848 C126.686,171.827 131.988,165.819 135.228,160.958 C139.836,154.048 146.862,150.172 155.549,149.751 C164.26,149.321 174.58,152.427 186.23,158.962 C207.422,170.851 208.176,190.732 205.614,199.583 C205.299,200.661 197.5,225.674 152.856,236.247 C149.037,237.152 145.114,237.566 141.133,237.566" fill="#7FC35B" id="path31879"/>
  </g>
</svg>
